<?xml version="1.0" standalone="no"?>
<!DOCTYPE svg PUBLIC "-//W3C//DTD SVG 20010904//EN"
 "http://www.w3.org/TR/2001/REC-SVG-20010904/DTD/svg10.dtd">
<svg version="1.0" xmlns="http://www.w3.org/2000/svg"
 width="700.000000pt" height="700.000000pt" viewBox="0 0 700.000000 700.000000"
 preserveAspectRatio="xMidYMid meet">
<metadata>
Created by potrace 1.14, written by Peter Selinger 2001-2017
</metadata>
<g transform="translate(0.000000,700.000000) scale(0.100000,-0.100000)"
fill="#000000" stroke="none">
<path d="M0 3500 l0 -3500 3500 0 3500 0 0 3500 0 3500 -3500 0 -3500 0 0
-3500z m5610 2678 c25 -6 87 -30 139 -55 127 -61 227 -159 289 -283 56 -112
73 -183 73 -305 -1 -284 -169 -524 -435 -621 -56 -20 -62 -25 -72 -60 l-11
-39 -276 -3 c-153 -1 -277 1 -277 5 0 5 9 44 18 87 l18 80 -82 81 c-68 68 -89
96 -127 175 -56 119 -71 180 -70 300 1 181 64 332 193 460 165 165 392 230
620 178z m-45 -1460 c-31 -91 -200 -723 -556 -2075 -236 -899 -434 -1644 -440
-1654 -6 -11 -21 -24 -35 -29 -35 -14 -413 -13 -452 1 -23 8 -35 21 -46 52 -9
23 -182 642 -386 1375 -203 734 -375 1342 -380 1353 -23 41 -100 33 -120 -13
-8 -18 -704 -2499 -760 -2706 -17 -66 -40 -72 -268 -72 -215 0 -248 4 -267 34
-15 24 -925 3499 -925 3534 0 12 9 31 20 42 19 19 33 20 239 20 194 0 221 -2
240 -17 17 -15 72 -238 330 -1352 240 -1039 313 -1337 327 -1348 29 -21 81
-16 98 9 8 13 170 586 361 1273 409 1476 390 1412 415 1425 24 13 475 13 499
0 10 -5 23 -22 29 -37 6 -15 174 -615 373 -1333 198 -718 368 -1315 375 -1327
11 -18 24 -23 54 -23 30 0 43 5 54 23 8 12 89 346 181 742 319 1381 487 2100
492 2108 2 4 128 7 278 7 215 0 273 -3 270 -12z m-67 -2130 c8 -8 12 -47 12
-110 0 -116 -2 -118 -109 -118 -95 0 -101 7 -101 120 0 114 5 120 109 120 46
0 82 -5 89 -12z m376 -4 c12 -12 16 -37 16 -104 0 -113 -6 -120 -101 -120
-107 0 -109 2 -109 118 0 63 4 102 12 110 19 19 163 16 182 -4z m-586 -426 c9
-9 12 -119 12 -433 0 -358 2 -430 16 -476 32 -106 125 -159 256 -145 146 15
233 97 274 258 13 50 17 137 21 423 3 222 9 365 15 373 14 16 159 17 176 0 9
-9 12 -155 12 -594 0 -516 -2 -584 -16 -598 -11 -11 -35 -16 -79 -16 -68 0
-95 14 -95 50 0 24 -37 50 -59 42 -9 -3 -35 -20 -58 -38 -76 -58 -144 -78
-268 -78 -226 -2 -346 84 -390 276 -20 88 -23 936 -3 956 7 7 43 12 93 12 50
0 86 -5 93 -12z"/>
<path d="M5325 5943 c-121 -44 -205 -118 -258 -231 -30 -63 -32 -74 -32 -177
0 -99 3 -116 28 -169 55 -119 146 -199 266 -236 325 -101 632 206 531 532 -37
120 -113 207 -229 261 -57 27 -79 32 -161 34 -72 3 -107 -1 -145 -14z m247
-113 c67 -19 131 -70 161 -130 26 -50 28 -62 24 -135 -3 -49 -13 -98 -26 -127
-11 -27 -22 -48 -23 -48 -2 0 -3 46 -3 103 0 92 -3 108 -28 159 -45 91 -127
140 -269 157 l-63 7 35 11 c45 14 145 16 192 3z"/>
</g>
</svg>
