<svg xmlns="http://www.w3.org/2000/svg" viewBox="0 0 900 900"><defs><style>.b73b2332-d34e-4ae9-ad9e-d0bcc3bbd5f8{fill:#004188;}.e41244fc-f11d-458a-bc20-d5fd2ceabb72{fill:#fff4f4;}.ab75c1b8-c9c6-46a0-b847-e2fb9dfed9dd{fill:none;stroke:#fff4f4;stroke-miterlimit:10;stroke-width:30px;}</style></defs><g id="b272bb40-c896-4f2f-965f-3461f1de6c22" data-name="background"><rect class="b73b2332-d34e-4ae9-ad9e-d0bcc3bbd5f8" width="900" height="900"/></g><g id="ed6be342-0d77-424c-a2eb-321866635418" data-name="foreground"><g id="ab4ef22b-2510-4ce0-8426-6f6ab7d984b7" data-name="Logo"><g id="a8de846b-6967-4276-a271-6393c2bdbdf1" data-name="w rounded"><path class="e41244fc-f11d-458a-bc20-d5fd2ceabb72" d="M186.85,318,265.12,655.7c2.12,9.13,15,9.4,17.52.38l94-338.45a9,9,0,0,1,8.71-6.62h54.81a9,9,0,0,1,8.71,6.62l94,338.45c2.51,9,15.41,8.75,17.52-.38L638.73,318a9,9,0,0,1,8.81-7h50.27a9,9,0,0,1,8.75,11.34L588.8,770.5a9,9,0,0,1-8.74,6.75H527.57a9.06,9.06,0,0,1-8.72-6.62L421.79,421.88c-2.45-8.82-15-8.83-17.42,0L306.73,770.64a9.05,9.05,0,0,1-8.71,6.61H245.53a9,9,0,0,1-8.75-6.76L119.63,322.34A9,9,0,0,1,128.38,311H178A9,9,0,0,1,186.85,318Z" transform="translate(0 0)"/></g><circle id="ba372b02-9455-4dad-9dd4-6e2f5bcec94d" data-name="lens" class="ab75c1b8-c9c6-46a0-b847-e2fb9dfed9dd" cx="701.26" cy="188.25" r="70"/><path id="fd979bff-f11a-4074-ab64-5c12bb26cf58" data-name="lens flare" class="e41244fc-f11d-458a-bc20-d5fd2ceabb72" d="M686.26,152.25c19.54-7.28,39.74-2.16,49,11,12.72,18.06-.17,44.21-2,44s5.71-23.17-6-39C717.94,155.64,700.28,152.67,686.26,152.25Z" transform="translate(0 0)"/><g id="b56e3746-3a72-4df2-bd44-a635f7ac6fd7" data-name="ü rounded"><path class="e41244fc-f11d-458a-bc20-d5fd2ceabb72" d="M675.47,620.62a5.89,5.89,0,0,1,5.88,5.89v98.26q0,12,3.81,19.63,7,14.07,26.22,14.06,27.54,0,37.5-24.61,5.42-13.19,5.42-36.18V626.51a5.89,5.89,0,0,1,5.89-5.89h14.59a5.89,5.89,0,0,1,5.89,5.89V771.62a5.89,5.89,0,0,1-5.89,5.89h-13a5.89,5.89,0,0,1-5.89-6h0a5.87,5.87,0,0,0-9.83-4.43c-.87.81-1.77,1.58-2.69,2.33q-15.09,12.3-36.63,12.3-33.54,0-45.7-22.41-6.59-12-6.59-32.08V626.51a5.89,5.89,0,0,1,5.89-5.89Zm11.91-54.78H703a5.88,5.88,0,0,1,5.88,5.88v18.7a5.89,5.89,0,0,1-5.88,5.89H687.38a5.89,5.89,0,0,1-5.88-5.89v-18.7A5.88,5.88,0,0,1,687.38,565.84Zm48.34,0h15.63a5.88,5.88,0,0,1,5.88,5.88v18.7a5.89,5.89,0,0,1-5.88,5.89H735.72a5.89,5.89,0,0,1-5.88-5.89v-18.7A5.88,5.88,0,0,1,735.72,565.84Z" transform="translate(0 0)"/></g><polygon id="bc15547a-ad18-4079-b8e6-3e07b9ba3cea" data-name="lens attach lower" class="e41244fc-f11d-458a-bc20-d5fd2ceabb72" points="719.06 281.25 722 270 653 258 647.78 281.25 719.06 281.25"/><polyline id="bbb71e96-b056-42ff-9ac0-89921d5669f8" data-name="lens attach upper" class="e41244fc-f11d-458a-bc20-d5fd2ceabb72" points="645.47 291.25 716.23 291.25 701.22 342.67 638.92 317.31 645.32 291.25"/></g></g></svg>