<svg id="ac1f76f3-0789-44cb-a15b-7cb16da6ee50" data-name="foreground" xmlns="http://www.w3.org/2000/svg" viewBox="0 0 666.93 678.51"><defs><style>.a726561d-3830-40d5-9306-da1b2c00572d{fill:#004188;}.f3cc87a5-9ce9-4673-9191-41d088363bc2{fill:none;stroke:#004188;stroke-miterlimit:10;stroke-width:30px;}</style></defs><g id="abc3ab65-8391-4983-9f59-e388ef9186ae" data-name="Logo"><g id="aba496ad-f0d2-43f2-9fe5-5d084442005b" data-name="w rounded"><path class="a726561d-3830-40d5-9306-da1b2c00572d" d="M186.85,318,265.12,655.7c2.12,9.13,15,9.4,17.52.38l94-338.45a9,9,0,0,1,8.71-6.62h54.81a9,9,0,0,1,8.71,6.62l94,338.45c2.51,9,15.41,8.75,17.52-.38L638.73,318a9,9,0,0,1,8.81-7h50.27a9,9,0,0,1,8.75,11.34L588.8,770.5a9,9,0,0,1-8.74,6.75H527.57a9.06,9.06,0,0,1-8.72-6.62L421.79,421.88c-2.45-8.82-15-8.83-17.42,0L306.73,770.64a9.05,9.05,0,0,1-8.71,6.61H245.53a9,9,0,0,1-8.75-6.76L119.63,322.34A9,9,0,0,1,128.38,311H178A9,9,0,0,1,186.85,318Z" transform="translate(-119.33 -103.25)"/></g><circle id="b9b8d282-98cb-4beb-80db-4b8739c6537d" data-name="lens" class="f3cc87a5-9ce9-4673-9191-41d088363bc2" cx="581.93" cy="85" r="70"/><path id="aa51c8fa-b083-4b2e-88bc-ee1807e51309" data-name="lens flare" class="a726561d-3830-40d5-9306-da1b2c00572d" d="M686.26,152.25c19.54-7.28,39.74-2.16,49,11,12.72,18.06-.17,44.21-2,44s5.71-23.17-6-39C717.94,155.64,700.28,152.67,686.26,152.25Z" transform="translate(-119.33 -103.25)"/><g id="e26ef9c7-a640-419f-8e76-4ac5f32d447e" data-name="ü rounded"><path class="a726561d-3830-40d5-9306-da1b2c00572d" d="M675.47,620.62a5.89,5.89,0,0,1,5.88,5.89v98.26q0,12,3.81,19.63,7,14.07,26.22,14.06,27.54,0,37.5-24.61,5.42-13.19,5.42-36.18V626.51a5.89,5.89,0,0,1,5.89-5.89h14.59a5.89,5.89,0,0,1,5.89,5.89V771.62a5.89,5.89,0,0,1-5.89,5.89h-13a5.89,5.89,0,0,1-5.89-6h0a5.87,5.87,0,0,0-9.83-4.43c-.87.81-1.77,1.58-2.69,2.33q-15.09,12.3-36.63,12.3-33.54,0-45.7-22.41-6.59-12-6.59-32.08V626.51a5.89,5.89,0,0,1,5.89-5.89Zm11.91-54.78H703a5.88,5.88,0,0,1,5.88,5.88v18.7a5.89,5.89,0,0,1-5.88,5.89H687.38a5.89,5.89,0,0,1-5.88-5.89v-18.7A5.88,5.88,0,0,1,687.38,565.84Zm48.34,0h15.63a5.88,5.88,0,0,1,5.88,5.88v18.7a5.89,5.89,0,0,1-5.88,5.89H735.72a5.89,5.89,0,0,1-5.88-5.89v-18.7A5.88,5.88,0,0,1,735.72,565.84Z" transform="translate(-119.33 -103.25)"/></g><polygon id="b8cd2880-2e5d-4ea8-833b-af09805b0f85" data-name="lens attach lower" class="a726561d-3830-40d5-9306-da1b2c00572d" points="599.73 178 602.67 166.75 533.67 154.75 528.45 178 599.73 178"/><polyline id="fd4afd07-eda1-48aa-a070-be8f18b0378d" data-name="lens attach upper" class="a726561d-3830-40d5-9306-da1b2c00572d" points="526.14 188 596.9 188 581.89 239.42 519.59 214.06 525.99 188"/></g></svg>